<?xml version="1.0" encoding="utf-8"?>
<!-- Generator: Adobe Illustrator 25.0.1, SVG Export Plug-In . SVG Version: 6.00 Build 0)  -->
<svg version="1.0" id="katman_1" xmlns="http://www.w3.org/2000/svg" xmlns:xlink="http://www.w3.org/1999/xlink" x="0px" y="0px"
	 viewBox="0 0 1145.6 667.1" style="enable-background:new 0 0 1145.6 667.1;" xml:space="preserve">
<style type="text/css">
	.st0{fill-rule:evenodd;clip-rule:evenodd;fill:#D70F64;}
	.st1{filter:url(#Adobe_OpacityMaskFilter);}
	.st2{fill-rule:evenodd;clip-rule:evenodd;fill:#FFFFFF;}
	.st3{mask:url(#mask-logo-1_1_);fill-rule:evenodd;clip-rule:evenodd;fill:#D70F64;}
	.st4{filter:url(#Adobe_OpacityMaskFilter_1_);}
	.st5{mask:url(#mask-logo-1_2_);fill-rule:evenodd;clip-rule:evenodd;fill:#D70F64;}
	.st6{filter:url(#Adobe_OpacityMaskFilter_2_);}
	.st7{mask:url(#mask-logo-1_3_);fill-rule:evenodd;clip-rule:evenodd;fill:#D70F64;}
</style>
<g id="Page-1">
	<g id="pink_horizontal_foodora_logo_svg">
		<g id="Logo_foodora_horizonzal_pink_cmyk">
			<path id="Fill-1" class="st0" d="M341.3,310H360v-17.3c0-21,11.7-35,35-35l11.7,2.3v21l-12.8-2.3c-7,0-10.5,4.7-10.5,11.7V310
				h23.3v21h-23.3v88.6H360V331h-18.7V310"/>
			<path id="Fill-2" class="st0" d="M467.2,401c22.2,0,33.8-16.3,33.8-36.2c0-19.8-11.7-36.2-33.8-36.2c-22.2,0-33.8,16.3-33.8,36.2
				C433.3,384.6,445,401,467.2,401z M467.2,307.7c30.3,0,57.2,23.3,57.2,57.2c0,33.8-26.8,57.2-57.2,57.2
				c-30.3,0-57.2-23.3-57.2-57.2C410,331,436.8,307.7,467.2,307.7L467.2,307.7z"/>
			<path id="Fill-3" class="st0" d="M591.8,401c22.2,0,33.8-16.3,33.8-36.2c0-19.8-11.7-36.2-33.8-36.2c-22.2,0-33.8,16.3-33.8,36.2
				C558,384.6,569.6,401,591.8,401z M591.8,307.7c30.3,0,57.2,23.3,57.2,57.2c0,33.8-26.8,57.2-57.2,57.2
				c-30.3,0-57.2-23.3-57.2-57.2C534.6,331,561.5,307.7,591.8,307.7L591.8,307.7z"/>
			<path id="Fill-4" class="st0" d="M716.4,328.7c-22.2,0-34.1,16.3-34.1,36.2c0,19.8,11.9,36.2,34.1,36.2
				c19.8,0,33.8-16.3,33.8-36.2C750.2,345,736.2,328.7,716.4,328.7z M771.2,419.6h-21l-2.3-9.3l-1.2-1.2l-1.2,1.2
				c-7,7-18.7,11.7-30.3,11.7c-30.3,0-56-23.3-56-57.2c0-33.8,25.7-57.2,56-57.2c11.4,0,23.3,4.7,30.3,11.7l1.2,1.2l1.2-1.2v-61.6
				h23.3V419.6L771.2,419.6z"/>
			<path id="Fill-5" class="st0" d="M843.4,401c22.2,0,33.8-16.3,33.8-36.2s-11.7-36.2-33.8-36.2c-22.2,0-33.8,16.3-33.8,36.2
				S821.2,401,843.4,401z M843.4,307.7c30.3,0,57.2,23.3,57.2,57.2S873.7,422,843.4,422c-30.3,0-57.2-23.3-57.2-57.2
				S813,307.7,843.4,307.7L843.4,307.7z"/>
			<path id="Fill-6" class="st0" d="M915.5,310h21l2.3,11.7l1.2,1.2l1.2-1.2c7-9.3,16.3-14,25.6-14c4.7,0,7,0,11.7,2.3v21h-14
				c-13.7,0-25.2,11.2-25.6,24.7v63.9h-23.3V310"/>
			<g id="Group-11">
				<g id="Clip-8">
				</g>
				<defs>
					<filter id="Adobe_OpacityMaskFilter" filterUnits="userSpaceOnUse" x="989.1" y="307.2" width="89.8" height="114.2">
						<feColorMatrix  type="matrix" values="1 0 0 0 0  0 1 0 0 0  0 0 1 0 0  0 0 0 1 0"/>
					</filter>
				</defs>
				<mask maskUnits="userSpaceOnUse" x="989.1" y="307.2" width="89.8" height="114.2" id="mask-logo-1_1_">
					<g class="st1">
						<polygon id="path-2_1_" class="st2" points="65.8,423.5 1078.9,423.5 1078.9,244.1 65.8,244.1 						"/>
					</g>
				</mask>
				<path id="Fill-7" class="st3" d="M1027.1,401.2c7.7,0,14.5-2.4,20.2-7.2c5.9-5.1,8.8-11.9,8.8-20.9v-2.4h-20
					c-14.1,0-22.8,6.6-22.8,17.1C1013.2,395.7,1018.1,401.2,1027.1,401.2z M1037,351.6h19.1v-4.8c0-13.2-9-19.3-21.5-19.3
					c-10.1,0-16.9,4.8-20.6,14.7l-20.9-4.4c4.6-18.7,20.6-30.5,41.7-30.5c29.4,0,44.1,14.5,44.1,43.7v68.7h-19.3l-2.2-14.5
					c-7.7,10.8-19.1,16.3-34.3,16.3c-19.5,0-34-11.6-34-33.6C989.1,365.2,1008.2,351.6,1037,351.6L1037,351.6z"/>
				<defs>
					<filter id="Adobe_OpacityMaskFilter_1_" filterUnits="userSpaceOnUse" x="78.8" y="376.6" width="198.7" height="47">
						<feColorMatrix  type="matrix" values="1 0 0 0 0  0 1 0 0 0  0 0 1 0 0  0 0 0 1 0"/>
					</filter>
				</defs>
				<mask maskUnits="userSpaceOnUse" x="78.8" y="376.6" width="198.7" height="47" id="mask-logo-1_2_">
					<g class="st4">
						<polygon id="path-2_2_" class="st2" points="65.8,423.5 1078.9,423.5 1078.9,244.1 65.8,244.1 						"/>
					</g>
				</mask>
				<path id="Fill-9" class="st5" d="M197.5,417c8.3-2.6,66.9-26.2,78.8-30.8c1.2-0.5,1.5-2,0.6-2.9c-1.3-1.4-3.7-2.9-8-3
					c-5.9-0.1-56.5,16-56.5,16s-23.9,4-26.8,3.5c-2.9-0.5-3.8-2.4-3.8-4.4s1.8-4.2,6.2-4.7c4.4-0.5,30-2,34.4-4.7
					c4.4-2.7,3.7-7.3,1.2-8.3c-3.5-1.3-76.4-1.6-112.7-0.9c-4.8,0.1-16.5-0.2-32.2-0.1c2.8,17.9,7.9,33.2,18.8,46.7
					c10.3-5.3,21.7-8.9,35.6-8.3C143.1,415.7,188.2,419.9,197.5,417"/>
				<defs>
					<filter id="Adobe_OpacityMaskFilter_2_" filterUnits="userSpaceOnUse" x="65.8" y="244.1" width="224.7" height="117.2">
						<feColorMatrix  type="matrix" values="1 0 0 0 0  0 1 0 0 0  0 0 1 0 0  0 0 0 1 0"/>
					</filter>
				</defs>
				<mask maskUnits="userSpaceOnUse" x="65.8" y="244.1" width="224.7" height="117.2" id="mask-logo-1_3_">
					<g class="st6">
						<polygon id="path-2_3_" class="st2" points="65.8,423.5 1078.9,423.5 1078.9,244.1 65.8,244.1 						"/>
					</g>
				</mask>
				<path id="Fill-10" class="st7" d="M136.2,278.5c-6.3,8-21.4,30.2-22.6,61c-0.1,3-2.2,5.2-4.7,5.2l-9.4,0c-3-0.1-5.2-3.8-4.4-7.3
					c3-12.5,12.4-39.8,40.4-59.8C136.1,277.2,136.7,278,136.2,278.5z M286.4,353.1h-9.2c-1.9-51.7-43.3-93.2-95-95.3v-9.6
					c0-2.3-1.8-4.1-4.1-4.1c-2.3,0-4.1,1.8-4.1,4.1v9.6c-51.6,2.1-93,43.6-95,95.3h-9.2c-2.3,0-4.1,1.8-4.1,4.1
					c0,2.3,1.8,4.1,4.1,4.1h216.5c2.3,0,4.1-1.8,4.1-4.1C290.5,354.9,288.6,353.1,286.4,353.1L286.4,353.1z"/>
			</g>
		</g>
	</g>
</g>
</svg>
